<svg xmlns="http://www.w3.org/2000/svg" xmlns:xlink="http://www.w3.org/1999/xlink" id="laughing-man" viewBox="0 0 256 256">
    <style>
        .c{fill:#23498c}
    </style>
    <g>
        <path d="M99.76 127.64c5.86 0 10.93 2.97 13.43 7.3 0-.1.01-.19.01-.29 0-7.38-5.99-13.37-13.37-13.37s-13.37 5.99-13.37 13.37v.05c2.55-4.2 7.55-7.06 13.3-7.06zM155.17 127.3c5.86 0 10.93 2.97 13.43 7.3 0-.1.01-.19.01-.29 0-7.38-5.99-13.37-13.37-13.37-7.38 0-13.37 5.99-13.37 13.37v.05c2.54-4.2 7.55-7.06 13.3-7.06zM127.05 181.03c26.57 0 48.6-18.68 52.55-43.05H74.51c3.94 24.38 25.97 43.05 52.54 43.05zm35.59-31.2c-6.84 11.6-20.21 19.5-35.6 19.5s-28.76-7.9-35.6-19.5h71.2z" class="c"/>
        <path d="M230.08 105.1h-.13C219.49 58.43 177.82 23.5 128 23.5 70.32 23.5 23.5 70.32 23.5 128S70.32 232.5 128 232.5c50.04 0 91.89-35.24 102.1-82.24 12.5-.02 23.4-10.13 23.4-22.59 0-12.46-10.91-22.57-23.42-22.57zm-.03 32.88h-40.84c-4.99 29.7-30.82 52.36-61.93 52.36-34.68 0-62.82-28.14-62.82-62.82a68 68 0 0 1 .08-3.2H51.98a84.89 84.89 0 0 0-.08 3.2c0 41.61 33.77 75.38 75.38 75.38 33.69 0 62.22-22.14 71.86-52.65l22.67-.01c-10.06 42.5-48.25 74.16-93.81 74.16-53.22 0-96.41-43.2-96.41-96.42S74.78 31.57 128 31.57c45.33 0 83.36 31.35 93.65 73.53h-22.42c-9.04-29.03-35.15-50.53-66.58-52.75l-1.36-2.82h-7.33l-1.3 2.78C86.59 54.49 57.35 82.07 52.6 117.4l177.43-.01h.02c5.59 0 10.88 4.61 10.88 10.29.01 5.67-5.29 10.3-10.88 10.3zm-44.09-32.88H68.59c9.04-23.61 31.91-40.39 58.68-40.39 26.78 0 49.65 16.78 58.69 40.39z" class="c"/>
    </g>
    <defs>
        <path id="mask" d="M195.15 105h30.16l.69-77H28v200l198 1-.46-79H195.5z"/>
    </defs>
    <clipPath id="clip">
        <use overflow="visible" xlink:href="#mask"/>
    </clipPath>
    <g clip-path="url(#clip)">
        <g>
            <animateTransform attributeName="transform" begin="0s" dur="15s" from="360 128 128" repeatCount="indefinite" to="0 128 128" type="rotate"/>
            <path d="M216.71 158.87l-13.21-4.3 1.16-3.57 13.21 4.3-1.16 3.57zM211.9 167.97l-1.63-.74-.4.89-1.64-.75.4-.88-5.54-2.52c-.68-.31-1.08-.45-1.19-.41-.11.04-.29.32-.53.86l-1.67-.76.6-1.32c.34-.75.61-1.27.82-1.56.21-.29.47-.51.8-.66s.64-.18.95-.12c.31.07.97.34 2 .81l5.26 2.4.32-.71 1.64.75-.32.71 1.63.74-1.5 3.27zM209.68 174.34l-2.71-1.56c.08.41.1.8.04 1.18-.06.38-.19.75-.4 1.1-.31.55-.72.93-1.21 1.16-.49.23-.93.29-1.33.17s-1.06-.44-1.99-.98l-6.8-3.92 1.8-3.12 6.94 4c.57.33.96.51 1.16.55.2.03.36-.05.47-.26.11-.19.1-.37-.03-.53-.13-.16-.45-.39-.95-.68l-7.04-4.06 1.8-3.12 12.04 6.93-1.79 3.14zM195.68 183.44l-2.24-1.67c-.82-.61-1.39-1.1-1.71-1.47-.32-.37-.54-.82-.66-1.35s-.1-1.07.07-1.63c.17-.56.47-1.13.89-1.7.48-.64.95-1.13 1.41-1.47.47-.34.93-.54 1.38-.58.46-.04.92.03 1.38.21s1.09.56 1.86 1.14l2.34 1.74c.85.63 1.44 1.22 1.78 1.77s.46 1.17.38 1.89c-.08.71-.41 1.45-.98 2.23-.48.65-.99 1.14-1.52 1.46s-1.04.51-1.53.54c-.49.03-.92-.03-1.31-.17s-.9-.46-1.54-.94zm2.84-2.38c.47.35.78.54.94.58.16.04.3-.03.43-.2s.15-.33.07-.48c-.08-.15-.35-.4-.82-.74l-4.12-3.07c-.43-.32-.73-.5-.91-.54s-.32.02-.45.19-.15.33-.07.47c.08.14.31.36.71.66l4.22 3.13zM191.63 193.73l-8.28-7.82 2.52-2.67.65.69c-.11-.45-.11-.87.01-1.26.11-.4.33-.77.66-1.12.37-.39.75-.66 1.12-.79.38-.13.74-.16 1.07-.07.34.08.64.22.91.42s.76.63 1.47 1.3l5.58 5.27-2.47 2.62-5.63-5.32c-.64-.61-1.05-.95-1.21-1.02-.16-.07-.32-.02-.5.16-.18.19-.23.37-.14.52s.47.55 1.15 1.19l5.57 5.26-2.48 2.64zM183.44 200.77l-5.62-6.73c-.76-.91-1.23-1.51-1.41-1.82-.18-.3-.26-.71-.24-1.23.02-.52.2-1.05.54-1.6s.87-1.13 1.59-1.72c.88-.74 1.71-1.18 2.48-1.34s1.52.17 2.25 1l-2.68 2.24c-.32-.39-.63-.46-.92-.21-.21.18-.3.35-.27.53.03.18.2.45.52.83l.55.66c.06-.41.18-.77.36-1.1.17-.33.41-.61.69-.85.5-.42.99-.66 1.47-.74.48-.08.92-.01 1.3.21.38.21.81.61 1.3 1.19l2.65 3.17c.69.83 1.04 1.56 1.03 2.18-.01.62-.33 1.2-.96 1.73-.35.29-.72.49-1.12.59-.4.1-.82.11-1.28.02l.35.83-2.58 2.16zm.83-4.64c.33.4.57.63.71.7.14.07.29.04.46-.1.16-.13.22-.29.18-.47-.04-.18-.21-.46-.52-.82l-2.45-2.94c-.33-.39-.56-.62-.71-.7s-.3-.04-.46.09c-.18.15-.24.32-.18.51s.3.53.72 1.02l2.25 2.71zM179.72 206.37l-1.71-2.62c-.11.4-.28.76-.5 1.07-.23.31-.51.58-.85.8-.53.34-1.06.51-1.6.49s-.96-.17-1.26-.45-.75-.87-1.33-1.77l-4.29-6.57 3.02-1.97 4.38 6.71c.36.56.62.89.78 1.01.16.12.34.12.54-.01.18-.12.26-.28.21-.49-.04-.21-.22-.55-.54-1.03l-4.44-6.8 3.02-1.97 7.59 11.63-3.02 1.97zM169.64 211.08l-.83-1.59-.86.45-.84-1.6.86-.45-2.83-5.39c-.35-.66-.58-1.01-.69-1.05-.11-.04-.43.08-.95.35l-.85-1.63 1.29-.68c.73-.38 1.26-.63 1.6-.73a2 2 0 0 1 1.03-.03c.35.09.62.25.82.49s.56.86 1.09 1.87l2.69 5.12.69-.36.84 1.59-.69.36.83 1.59-3.2 1.69zM151.69 216.5l-2.32-11.24 3.7-1.26c.65 1.25 1.48 2.9 2.48 4.96-.23-.98-.43-1.98-.6-3l-.42-2.47 3.71-1.27 5.12 10.28-2.94 1c-.12-.27-1.07-2.25-2.85-5.92.1.41.54 2.55 1.34 6.43l-2.82.96-2.8-5.93c.51 1.84.95 3.99 1.32 6.44l-2.92 1.02zM146.61 220.04l-.6-3.07a3.135 3.135 0 0 1-1.96 1.22c-.62.12-1.17.07-1.67-.15s-.83-.52-1-.89c-.17-.38-.36-1.09-.57-2.14l-1.5-7.71 3.54-.69 1.54 7.86c.13.65.24 1.06.35 1.24.1.17.27.24.51.19.22-.04.34-.17.38-.37.04-.21 0-.59-.11-1.16l-1.56-7.97 3.54-.69 2.66 13.63-3.55.7zM135.46 214.66l3.37-.26.06.76c.07.88.01 1.56-.16 2.06-.17.49-.56.94-1.17 1.36-.61.41-1.42.66-2.43.74-1.22.09-2.15-.04-2.8-.41s-1.06-.84-1.23-1.44c-.17-.59-.33-1.83-.47-3.7l-.44-5.7 3.5-.27.08 1.01c.19-.42.45-.75.78-.98s.74-.36 1.22-.4c.63-.05 1.22.08 1.77.38s.87 1.02.96 2.17l.07.93c.07.85-.03 1.44-.29 1.77-.25.33-.92.74-1.99 1.24-1.15.54-1.75.88-1.83 1.04s-.09.48-.05.95c.05.59.12.98.23 1.15.11.17.27.25.48.23.24-.02.39-.11.44-.26.05-.16.05-.55 0-1.18l-.1-1.19zm-1.26-1.47c.54-.45.85-.81.92-1.09.07-.28.09-.68.05-1.19-.04-.59-.11-.96-.21-1.13s-.26-.24-.5-.22c-.23.02-.37.09-.43.23s-.06.49-.02 1.06l.19 2.34zM124.9 220.87l.03-1.79-.97-.02.03-1.8.97.02.1-6.09c.01-.75-.02-1.17-.1-1.25-.08-.09-.41-.14-1-.15l.03-1.83 1.45.02c.82.01 1.41.06 1.76.13.35.07.66.23.92.47.26.24.43.52.49.82.06.31.08 1.03.06 2.16l-.09 5.78.78.01-.03 1.8-.78-.01-.03 1.79-3.62-.06zM114.24 220.91l1.75-13.78 3.73.47-1.75 13.78-3.73-.47zM112.62 216.1l.04 2.39-.38 2.09-2.69-.49.38-2.09.83-2.23 1.82.33zM99.5 217.58l3.62-13.41 3.48.94-.22.8c.42-.24.84-.4 1.25-.46.41-.07.82-.05 1.22.06.54.15.97.41 1.29.79.32.38.49.76.51 1.15.02.39-.09.99-.31 1.8l-1.39 5.14c-.23.84-.45 1.43-.65 1.75-.21.32-.55.56-1.02.72s-.99.16-1.55.01c-.43-.12-.81-.3-1.12-.54-.32-.25-.58-.56-.8-.94l-.84 3.12-3.47-.93zm4.88-4.25c-.11.4-.15.68-.11.84.03.16.16.27.37.32.21.06.36.03.47-.07.11-.1.22-.37.33-.8l1.45-5.38c.12-.45.17-.75.14-.91-.03-.16-.14-.26-.34-.32-.22-.06-.39-.02-.51.12-.12.14-.26.51-.42 1.13l-1.38 5.07zM85.53 211.85l5.74-12.65 3.28 1.49-.34.75c.46-.17.89-.26 1.31-.25s.82.09 1.2.26c.51.23.89.56 1.15.99s.36.83.31 1.22-.25.96-.59 1.73l-2.2 4.85c-.36.8-.67 1.34-.93 1.62-.26.29-.63.47-1.13.55s-1 0-1.53-.24c-.41-.18-.75-.42-1.02-.72-.27-.29-.49-.64-.63-1.05l-1.33 2.94-3.29-1.49zm5.5-3.4c-.17.38-.25.65-.25.81.01.16.11.29.31.38.19.09.35.09.47 0s.27-.33.46-.74l2.3-5.08c.19-.42.28-.71.28-.88 0-.16-.1-.29-.28-.37-.21-.1-.39-.08-.52.03-.14.12-.34.46-.6 1.04l-2.17 4.81zM79.37 200.74l1.44-2.39c.53-.88.96-1.49 1.3-1.84.34-.35.77-.62 1.28-.79.52-.17 1.06-.2 1.63-.09.57.12 1.17.36 1.78.73.68.41 1.22.83 1.6 1.26.39.43.62.87.71 1.32.09.45.06.92-.08 1.4s-.46 1.14-.96 1.96l-1.51 2.5c-.55.91-1.08 1.55-1.59 1.94-.51.39-1.12.57-1.84.56-.72-.01-1.49-.27-2.31-.76-.69-.42-1.23-.88-1.6-1.37-.38-.5-.6-.99-.68-1.47s-.06-.92.04-1.32.38-.95.79-1.64zm2.65 2.59c-.3.5-.46.83-.49.99-.02.16.06.3.24.41.18.11.34.12.48.03.14-.09.36-.39.66-.89l2.66-4.4c.28-.46.43-.78.45-.96.02-.18-.05-.32-.23-.43-.18-.11-.34-.12-.48-.03-.14.09-.33.35-.58.77l-2.71 4.51zM63.18 192.71l8.58-7.62 2.94 2.58c-.76 1.19-1.78 2.73-3.06 4.63.73-.69 1.5-1.36 2.3-2.01l1.93-1.6 2.95 2.58-6.35 9.57-2.34-2.05c.18-.24 1.41-2.05 3.7-5.42-.3.29-1.94 1.75-4.9 4.37l-2.25-1.97 3.75-5.39c-1.34 1.36-2.98 2.81-4.92 4.36l-2.33-2.03zM63.07 185.87l2.23 2.54-.57.5c-.66.58-1.24.95-1.74 1.1-.5.16-1.09.12-1.79-.12s-1.38-.74-2.05-1.5c-.8-.92-1.25-1.75-1.35-2.48s.04-1.35.41-1.85c.37-.49 1.26-1.36 2.68-2.6l4.3-3.77 2.31 2.64-.76.67c.45-.1.87-.09 1.25.04s.73.37 1.05.73c.42.47.67 1.02.76 1.64.09.62-.3 1.31-1.16 2.07l-.7.62c-.64.56-1.17.84-1.59.83-.42-.01-1.14-.29-2.18-.85-1.12-.6-1.76-.87-1.93-.83s-.44.22-.79.53c-.45.39-.71.68-.78.87a.48.48 0 0 0 .1.52c.16.18.32.25.47.19.15-.05.47-.29.95-.71l.88-.78zm.42-1.89c.69.17 1.16.19 1.43.08s.59-.34.98-.68c.44-.39.7-.67.78-.84.08-.17.04-.35-.12-.53-.15-.17-.3-.24-.44-.2s-.43.24-.86.62l-1.77 1.55zM53.87 175.12l1.83 2.62-.51.35c-.43.3-.69.52-.77.65-.08.13-.05.3.1.5.12.17.26.25.42.26.16.01.35-.06.56-.21.29-.2.48-.37.59-.5.1-.13.16-.36.18-.68.02-.32-.05-.91-.19-1.76-.2-1.14-.21-1.97-.04-2.49s.59-1.01 1.27-1.49c.76-.53 1.4-.83 1.93-.89.53-.07 1.07.07 1.61.4s1.05.84 1.53 1.52c.52.75.86 1.47 1.01 2.16.15.69.1 1.27-.15 1.74s-.76.97-1.54 1.52l-.45.31-1.83-2.62.59-.41c.5-.35.8-.61.91-.78.1-.17.09-.35-.05-.55-.15-.21-.3-.32-.46-.33-.16-.01-.4.09-.72.32-.45.31-.69.56-.73.75-.03.19.03 1 .2 2.42.14 1.2.08 2.02-.17 2.48s-.64.87-1.16 1.24c-.75.52-1.37.8-1.86.84-.5.04-1.01-.12-1.55-.47-.53-.36-1.03-.86-1.48-1.51-.45-.64-.75-1.25-.91-1.81-.16-.56-.19-1.05-.1-1.47.09-.42.23-.74.41-.94.19-.21.51-.47.98-.8l.55-.37zM56.19 169.11l1.07-.63c.56-.33 1.06-.54 1.5-.61.44-.08.89-.02 1.34.17s.85.48 1.19.86l-.86.51c-.35-.21-.68-.25-.98-.12l.31.52-2.34 1.39-1.23-2.09zM42.15 166.11l12.58-5.9 1.59 3.4-12.58 5.9-1.59-3.4zM45.33 162.16l-2 1.31-1.97.79-1.02-2.53 1.97-.79 2.33-.49.69 1.71zM37.09 151.9l13.27-4.11 1.07 3.44-.79.24c.43.23.78.5 1.06.81.28.31.48.67.6 1.07.17.53.17 1.04.02 1.51s-.38.82-.7 1.04-.88.46-1.69.7l-5.09 1.58c-.84.26-1.45.39-1.83.38-.38 0-.77-.16-1.16-.48-.39-.32-.67-.75-.84-1.3-.13-.43-.18-.84-.14-1.24.04-.4.16-.79.37-1.17l-3.08.96-1.07-3.43zm6.2 1.85c-.4.12-.66.24-.77.36-.11.11-.14.28-.07.49.06.21.17.32.31.36.14.03.43-.02.86-.15l5.33-1.65c.44-.14.72-.26.84-.37s.15-.26.09-.46c-.07-.22-.19-.35-.37-.37s-.57.06-1.18.24l-5.04 1.55zM37.56 141.16l1-.08c-.45-.26-.8-.57-1.05-.93s-.41-.76-.47-1.21c-.08-.55 0-1.05.23-1.5.23-.44.52-.74.88-.89s.99-.29 1.88-.42l4.75-.66c1.03-.14 1.76-.18 2.21-.12s.83.28 1.15.63c.31.36.51.81.58 1.36.06.44.02.87-.13 1.27s-.39.79-.74 1.16l2.58-.36.5 3.57-12.88 1.8-.49-3.62zm3.13-1.48c-.7.1-1.11.18-1.25.26-.14.07-.19.23-.16.47.03.24.14.38.32.42.18.04.6.02 1.25-.07l4.67-.65c.68-.1 1.1-.19 1.26-.28s.22-.26.19-.5c-.03-.23-.13-.36-.29-.4-.16-.03-.55-.01-1.15.08l-4.84.67zM36.65 130.66l1.5.08c-1.09-.48-1.69-1.22-1.79-2.21l4-.16c.03.66.13 1.14.31 1.44.18.3.43.48.74.54s1.01.07 2.12.02l4.49-.18.14 3.6-11.38.45-.13-3.58zM42.9 118.76l-.27 4.66 2.46.15c.51.03.85.01 1-.06.15-.07.24-.21.25-.43.02-.27-.07-.46-.26-.57-.19-.1-.57-.17-1.14-.21l-1.5-.09.2-3.41.84.05c.7.04 1.24.12 1.61.23.37.11.76.35 1.17.72s.7.81.89 1.34c.18.53.25 1.19.21 1.97-.04.76-.19 1.42-.44 1.99-.25.57-.56 1.01-.95 1.31-.39.3-.81.5-1.26.6-.45.1-1.1.12-1.94.07l-3.31-.2c-.99-.06-1.77-.24-2.33-.56-.56-.31-.97-.8-1.24-1.45s-.38-1.39-.33-2.22c.06-1.01.29-1.83.7-2.47.41-.63.92-1.07 1.55-1.29.62-.23 1.49-.31 2.59-.24l1.5.11zm-2.06 3.5l-.83-.05c-.59-.03-.97-.02-1.15.03-.18.06-.27.18-.28.39-.02.25.05.41.19.48s.53.12 1.17.16l.83.05.07-1.06zM36.42 112.19l1.77.27.15-.96 1.78.27-.15.96 6.02.92c.74.11 1.16.14 1.26.07.1-.07.19-.39.28-.97l1.81.28-.22 1.44c-.12.81-.25 1.39-.36 1.72s-.31.62-.59.85c-.28.23-.57.35-.88.37-.31.02-1.03-.06-2.15-.23l-5.72-.88-.12.77-1.78-.27.12-.77-1.77-.27.55-3.57zM46.09 103.11l-1.14 4.53 2.39.6c.5.13.83.17.99.13.16-.04.27-.16.32-.38.07-.27.02-.47-.15-.6-.17-.14-.53-.28-1.08-.41l-1.46-.37.83-3.31.82.2c.68.17 1.2.35 1.54.53.34.18.68.49 1.02.92.33.43.54.93.62 1.49.08.56.03 1.22-.17 1.98-.19.74-.45 1.36-.8 1.88-.35.51-.74.88-1.18 1.11-.44.22-.89.34-1.35.36-.46.01-1.1-.08-1.92-.29l-3.22-.81c-.97-.24-1.69-.57-2.18-.98s-.81-.96-.95-1.65c-.14-.69-.11-1.44.09-2.24.25-.98.63-1.75 1.15-2.29.52-.55 1.1-.88 1.76-.98s1.52-.03 2.59.24l1.48.34zm-2.68 3.05l-.81-.2c-.57-.14-.95-.2-1.13-.18-.18.02-.3.13-.35.33-.06.24-.03.41.1.5s.5.22 1.12.37l.81.2.26-1.02zM42.43 95.87l.96.43c-.3-.39-.48-.8-.54-1.23-.06-.43 0-.87.17-1.33.22-.58.53-1 .93-1.27s.82-.38 1.26-.33c.44.05 1.12.25 2.05.6l7.45 2.84-1.28 3.37-7.37-2.81c-.73-.28-1.19-.42-1.37-.44-.18-.01-.31.1-.4.33-.09.24-.06.42.1.56s.64.35 1.44.66l7.19 2.74-1.28 3.37-10.62-4.06 1.31-3.43zM46.74 80.77l12.3 6.46-1.68 3.19-.73-.38c.14.47.2.91.18 1.32-.02.42-.13.81-.33 1.18-.26.5-.61.86-1.05 1.09-.44.23-.85.31-1.24.24-.38-.07-.95-.3-1.69-.69l-4.72-2.48c-.77-.41-1.3-.75-1.57-1.02s-.43-.66-.48-1.16c-.05-.5.06-1 .32-1.51.21-.39.47-.72.78-.98.31-.26.67-.45 1.09-.57l-2.86-1.5 1.68-3.19zm3.07 5.69c-.37-.19-.63-.29-.8-.29-.16 0-.29.1-.4.29-.1.19-.11.35-.03.47.08.13.32.29.71.5l4.94 2.59c.41.22.7.33.86.33.16 0 .29-.08.38-.26.11-.21.11-.38 0-.52s-.44-.36-1.01-.66l-4.65-2.45zM52.57 72.06l11.31 8.06-2.18 3.06-11.31-8.06 2.18-3.06zM66.67 59.97l7.17 8.96-2.72 2.81c-1.15-.81-2.64-1.91-4.47-3.29.65.77 1.28 1.57 1.89 2.4l1.5 2-2.73 2.82-9.24-6.83 2.16-2.23c.23.19 1.97 1.51 5.23 3.97-.27-.32-1.64-2.02-4.12-5.12l2.08-2.14 5.19 4.01c-1.29-1.41-2.66-3.12-4.11-5.13l2.17-2.23zM73.51 60.2l-2.65 2.1-.47-.6c-.55-.69-.88-1.29-1.02-1.79-.13-.51-.06-1.1.21-1.78.27-.68.81-1.34 1.6-1.97.96-.76 1.81-1.16 2.55-1.22.74-.06 1.35.11 1.82.51s1.29 1.33 2.46 2.81l3.54 4.48-2.75 2.17-.63-.8c.08.46.05.87-.1 1.25-.15.38-.41.71-.79 1.01-.49.39-1.05.62-1.68.68-.62.06-1.29-.36-2.01-1.26l-.58-.73c-.53-.67-.78-1.21-.75-1.63s.35-1.13.96-2.14c.65-1.08.96-1.71.93-1.89s-.19-.45-.49-.82c-.37-.47-.65-.74-.83-.83a.494.494 0 0 0-.53.07c-.19.15-.26.3-.22.46s.27.48.66.98l.77.94zm1.87.52c-.2.68-.25 1.15-.15 1.42s.31.61.63 1.01c.37.46.63.74.8.82.17.08.35.05.53-.09.18-.14.25-.28.22-.43-.03-.15-.22-.45-.58-.89l-1.45-1.84zM84.73 51.56l-2.71 1.69-.33-.52c-.28-.45-.48-.71-.61-.8-.13-.09-.3-.06-.51.07-.17.11-.27.24-.28.4s.04.35.18.57c.19.3.34.5.47.61.13.11.35.18.67.21.32.03.91 0 1.77-.1 1.15-.14 1.98-.11 2.48.09.51.2.98.65 1.42 1.35.49.79.75 1.45.79 1.98.04.53-.12 1.06-.49 1.59-.36.53-.89 1.01-1.6 1.45-.78.49-1.51.78-2.21.9-.7.11-1.27.03-1.73-.24-.46-.27-.93-.81-1.44-1.61l-.29-.47 2.71-1.69.38.61c.32.52.57.83.73.95s.35.11.55-.02c.22-.14.34-.28.36-.44.02-.16-.07-.4-.28-.74-.29-.46-.52-.71-.71-.76-.19-.04-1-.02-2.42.08-1.2.08-2.02-.02-2.47-.3-.44-.27-.83-.68-1.17-1.22-.48-.77-.73-1.41-.75-1.91s.17-1.01.55-1.52.91-.98 1.58-1.4c.67-.42 1.28-.69 1.85-.82s1.06-.14 1.48-.03c.42.11.72.26.92.46.2.2.44.54.75 1.02l.36.56zM97.53 45.97l1.09 2.56c.4.94.65 1.65.74 2.13s.05.98-.11 1.5-.45.98-.88 1.37c-.43.4-.97.74-1.63 1.02-.73.31-1.39.5-1.96.56-.57.06-1.07 0-1.49-.2s-.78-.49-1.09-.88-.65-1.03-1.03-1.92l-1.14-2.68c-.42-.97-.63-1.78-.64-2.42s.19-1.25.62-1.82c.43-.57 1.08-1.05 1.97-1.43.74-.32 1.43-.48 2.05-.5.62-.01 1.15.09 1.59.31.44.22.78.49 1.05.8.26.33.55.86.86 1.6zm-3.65.62c-.23-.54-.4-.86-.52-.98s-.28-.13-.47-.04c-.2.08-.3.21-.31.38-.01.17.11.52.33 1.06l2.02 4.73c.21.49.38.8.51.92s.29.14.48.06c.2-.08.3-.21.3-.37s-.09-.47-.28-.92l-2.06-4.84zM101.83 40.42l.23 1.02c.13-.48.35-.87.66-1.17.3-.31.69-.53 1.17-.67.59-.17 1.12-.18 1.57-.02.46.16.8.43 1.03.8.23.38.48 1.04.76 2l2.24 7.66-3.46 1.01-2.22-7.57c-.22-.75-.38-1.2-.48-1.35-.1-.15-.27-.19-.5-.12-.25.07-.37.21-.38.42-.01.21.11.72.35 1.55l2.16 7.39-3.46 1.01-3.2-10.93 3.53-1.03zM117.77 43.01l-4.6.78.41 2.43c.09.51.18.83.28.96.1.13.26.18.48.15.27-.05.43-.17.49-.38s.04-.59-.05-1.15l-.25-1.48 3.37-.57.14.83c.12.69.16 1.23.13 1.62-.03.39-.17.82-.44 1.3-.26.48-.63.87-1.11 1.17s-1.1.51-1.88.64c-.75.13-1.43.13-2.04.02-.61-.11-1.11-.32-1.49-.63-.38-.31-.67-.67-.87-1.09-.2-.42-.37-1.04-.51-1.88l-.55-3.27c-.17-.98-.16-1.78.02-2.39.18-.61.56-1.12 1.14-1.53.58-.41 1.27-.68 2.09-.82 1-.17 1.85-.13 2.56.13.71.25 1.25.66 1.61 1.22.36.56.63 1.38.82 2.47l.25 1.47zm-3.87-1.22l-.14-.82c-.1-.58-.19-.95-.29-1.11-.09-.16-.24-.22-.44-.19-.25.04-.39.14-.42.29-.03.15 0 .55.11 1.18l.14.82 1.04-.17zM131.29 40.55l.05 2.79c.02 1.02-.03 1.77-.12 2.25-.1.48-.32.93-.67 1.35-.34.42-.79.73-1.34.94-.55.21-1.18.32-1.89.33-.8.01-1.47-.06-2.03-.22-.56-.16-.99-.41-1.3-.74s-.54-.74-.68-1.22-.22-1.21-.23-2.17l-.05-2.92c-.02-1.06.09-1.89.32-2.48.23-.6.65-1.08 1.26-1.45s1.4-.56 2.36-.58c.81-.01 1.5.09 2.09.31.58.22 1.04.52 1.36.88.32.37.54.75.67 1.14.12.38.19.98.2 1.79zm-3.61-.8c-.01-.58-.05-.95-.12-1.1s-.21-.22-.42-.22-.36.08-.42.23c-.07.15-.1.52-.09 1.1l.08 5.14c.01.54.05.89.12 1.05.07.16.22.24.42.24.21 0 .35-.08.42-.23.07-.15.09-.47.09-.96l-.08-5.25zM138.35 34.64l-.14 1.75c-.74-.06-1.18-.06-1.32-.01-.14.05-.22.24-.25.54l-.03.36 1.51.12-.15 1.8-.85-.07-.76 9.28-3.59-.29.76-9.28-.74-.06.15-1.8.74.06c.06-.75.13-1.24.2-1.49s.22-.46.45-.64.53-.3.92-.38c.39-.07.98-.07 1.78-.01l1.32.12zM147.59 37.15l-.34 1.76.95.19-.35 1.77-.95-.19-1.17 5.98c-.14.74-.19 1.15-.12 1.25s.38.21.96.32l-.35 1.8-1.43-.28c-.81-.16-1.37-.3-1.71-.44a1.82 1.82 0 0 1-.82-.63 1.43 1.43 0 0 1-.33-.9c-.01-.31.1-1.02.32-2.14l1.11-5.67-.76-.15.35-1.77.76.15.34-1.76 3.54.71zM154.29 37.84l-.89 3c.38-.18.75-.28 1.14-.31.38-.03.77.01 1.17.13.6.18 1.07.48 1.41.9s.49.84.47 1.25c-.02.41-.18 1.13-.49 2.16l-2.24 7.52-3.45-1.03 2.28-7.68c.19-.64.28-1.05.27-1.25-.01-.2-.13-.33-.36-.4-.21-.06-.38-.01-.51.15s-.28.52-.44 1.08l-2.32 7.79-3.46-1.03 3.96-13.31 3.46 1.03zM166.39 49.37l-1.1 2.56c-.41.94-.75 1.61-1.04 2s-.67.71-1.16.96-1.02.34-1.6.31c-.58-.04-1.2-.2-1.86-.48-.73-.32-1.32-.66-1.76-1.04-.44-.37-.74-.78-.88-1.21-.15-.43-.18-.9-.11-1.39s.3-1.19.68-2.07l1.16-2.68c.42-.97.86-1.68 1.31-2.13.45-.45 1.04-.72 1.75-.81.71-.09 1.51.06 2.39.44.74.32 1.33.7 1.78 1.14.44.44.73.9.87 1.36.14.47.19.9.14 1.31-.07.41-.25.99-.57 1.73zm-2.97-2.22c.23-.54.35-.89.35-1.05s-.1-.29-.29-.38c-.2-.08-.36-.07-.48.04-.13.11-.3.43-.54.97l-2.04 4.72c-.21.49-.32.83-.32 1.01s.1.31.29.39c.2.08.36.07.48-.04.12-.11.28-.39.47-.84l2.08-4.82zM174.72 53.62l-2.77-1.59.31-.54c.26-.46.4-.76.42-.91.02-.15-.08-.29-.3-.41-.18-.1-.34-.12-.49-.06s-.29.2-.42.43c-.17.3-.28.54-.32.7s.01.4.13.69.43.8.93 1.51c.66.95 1.03 1.69 1.1 2.23.07.54-.1 1.17-.52 1.89-.46.8-.92 1.35-1.37 1.63s-.99.39-1.63.32c-.64-.07-1.31-.31-2.03-.72-.79-.46-1.41-.96-1.84-1.52-.43-.56-.63-1.11-.61-1.63.02-.53.27-1.2.74-2.03l.27-.48 2.77 1.59-.36.63c-.3.53-.47.9-.49 1.09-.02.2.07.36.28.48.22.13.41.16.56.11.15-.06.32-.26.52-.6.27-.47.38-.8.34-.98-.05-.19-.46-.89-1.21-2.1-.64-1.02-.94-1.79-.91-2.31.03-.52.2-1.06.52-1.61.45-.79.89-1.31 1.32-1.56.43-.25.96-.33 1.6-.24.64.09 1.3.34 1.98.73.68.39 1.21.8 1.6 1.24s.62.87.72 1.29c.1.42.11.76.03 1.03-.08.26-.26.65-.54 1.14l-.33.56zM181.74 61.38l-3.77-2.75-1.45 1.99c-.3.42-.47.71-.49.87-.03.17.05.31.23.44.22.16.43.19.62.08.19-.1.45-.39.79-.84l.89-1.21 2.76 2.02-.5.68c-.42.57-.77.98-1.07 1.23-.3.25-.71.45-1.24.59-.53.15-1.06.15-1.61.02s-1.14-.43-1.77-.9c-.61-.45-1.09-.93-1.44-1.45-.35-.52-.54-1.02-.58-1.51-.04-.49.01-.95.17-1.38.16-.43.49-.99.99-1.67l1.96-2.68c.59-.8 1.16-1.35 1.73-1.65.56-.3 1.19-.38 1.89-.26.69.13 1.38.44 2.04.92.82.6 1.38 1.24 1.69 1.92.31.69.4 1.35.25 2-.15.65-.54 1.42-1.2 2.31l-.89 1.23zm-1.82-3.63l.49-.67c.35-.48.55-.8.59-.98.05-.18-.01-.33-.17-.44-.2-.15-.37-.18-.5-.1-.13.08-.39.38-.77.9l-.49.67.85.62zM197.59 64.84l-9.87 9.77-2.54-2.56.59-.58c-.49 0-.93-.08-1.32-.23-.39-.15-.73-.37-1.02-.67-.39-.4-.63-.84-.72-1.33s-.04-.91.14-1.25c.18-.34.57-.81 1.17-1.4l3.79-3.75c.62-.62 1.1-1.01 1.45-1.19.34-.18.76-.21 1.25-.11s.94.36 1.34.77c.31.32.55.66.7 1.04.15.37.22.78.22 1.21l2.29-2.27 2.53 2.55zm-6.35 1.22c.3-.29.47-.52.52-.67.05-.15 0-.31-.16-.46-.15-.15-.3-.21-.44-.17s-.37.21-.69.53l-3.96 3.92c-.33.33-.52.57-.57.72-.05.15-.01.3.13.45.16.17.33.22.5.16s.48-.31.93-.76l3.74-3.72zM197.92 78.63l-2.88-3.68-1.94 1.52c-.41.32-.64.55-.71.7-.07.15-.04.32.1.49.17.22.36.3.57.25.21-.05.54-.25.99-.6l1.18-.92 2.11 2.69-.66.52c-.55.43-1.01.73-1.36.89-.35.16-.8.24-1.35.24s-1.06-.14-1.55-.42c-.49-.28-.98-.73-1.46-1.34-.47-.6-.8-1.19-.99-1.78-.19-.59-.24-1.13-.15-1.61.09-.48.27-.91.54-1.28s.74-.82 1.41-1.34l2.62-2.05c.78-.61 1.49-.99 2.11-1.12.62-.13 1.25-.04 1.89.27.63.31 1.2.79 1.71 1.45.62.8.99 1.57 1.11 2.31.11.75.01 1.41-.3 1.99-.32.58-.91 1.22-1.78 1.9l-1.21.92zm-.77-3.99l.66-.51c.46-.36.74-.62.84-.78.09-.16.08-.32-.04-.48-.15-.2-.31-.27-.46-.23s-.48.26-.98.66l-.66.51.64.83zM201.87 82.07l-1.76-2.89.65-.4c.75-.46 1.39-.72 1.9-.79s1.1.07 1.74.42 1.23.96 1.76 1.83c.64 1.04.94 1.93.91 2.68s-.27 1.33-.72 1.75c-.45.42-1.48 1.12-3.08 2.1l-4.88 2.98-1.83-2.99.87-.53c-.46.02-.87-.06-1.23-.25-.35-.19-.66-.49-.91-.9-.33-.54-.49-1.12-.47-1.75.02-.63.51-1.24 1.5-1.84l.8-.49c.73-.44 1.29-.63 1.71-.55.41.08 1.08.48 2.01 1.21 1 .78 1.58 1.16 1.76 1.15.17-.01.46-.14.87-.39.51-.31.81-.55.92-.72.11-.17.1-.35-.01-.53-.13-.21-.27-.3-.43-.27-.16.03-.51.21-1.05.54l-1.03.63zm-.73 1.79c-.65-.28-1.11-.39-1.39-.32s-.64.23-1.08.5c-.5.31-.81.54-.91.7s-.09.34.03.54c.12.19.25.28.4.27s.47-.17.96-.46l1.99-1.23zM213.43 88.91l-1.58.78c-.33-.67-.55-1.05-.67-1.14-.12-.09-.32-.07-.59.07l-.32.16.67 1.36-1.62.8-.38-.77-8.35 4.11-1.59-3.24 8.35-4.11-.33-.66 1.62-.8.33.66c.67-.33 1.13-.53 1.38-.59.25-.06.51-.04.78.06s.54.3.8.6.57.8.92 1.52l.58 1.19zM209.33 97.25l-2.21.91-1.8-4.38 2.21-.91 1.8 4.38zM215.39 101.06l-1.06.23c.49.16.89.39 1.2.71.31.32.53.71.66 1.19.25.93.04 1.77-.64 2.53.49.18.9.42 1.2.73.31.31.52.69.65 1.14.16.59.16 1.12-.01 1.58-.17.46-.44.8-.81 1.02-.37.22-1 .45-1.9.7l-7.8 2.14-.92-3.37 7.16-1.96c.94-.26 1.51-.45 1.71-.58.21-.13.28-.31.21-.55-.07-.25-.22-.38-.46-.39s-.83.11-1.78.37l-7.16 1.96-.92-3.37 6.98-1.91c1.08-.29 1.71-.5 1.91-.61.2-.11.27-.29.2-.54a.54.54 0 0 0-.28-.35c-.14-.08-.3-.1-.46-.07s-.51.12-1.04.27l-7.61 2.09-.92-3.37 10.98-3.01.91 3.42zM219.21 121l-11.3 1.37-.44-3.64.95-.05c-.41-.2-.73-.47-.97-.81-.23-.34-.38-.75-.44-1.22-.07-.54-.03-.99.11-1.37.14-.38.35-.67.63-.87.28-.21.58-.35.9-.43.32-.08.97-.18 1.94-.3l7.62-.92.43 3.58-7.69.93c-.88.11-1.4.2-1.56.27-.16.08-.22.24-.19.49.03.27.14.41.31.44.18.03.73-.01 1.65-.12l7.61-.92.44 3.57zM220.91 127.16l-1.79.05.03.97-1.8.05-.03-.97-6.09.16c-.75.02-1.17.07-1.25.15s-.12.42-.1 1.01l-1.83.05-.04-1.45c-.02-.82 0-1.41.05-1.76s.2-.67.43-.94c.23-.27.5-.45.8-.52.3-.07 1.02-.13 2.15-.16l5.78-.15-.02-.78 1.8-.05.02.78 1.79-.05.1 3.61zM213.04 137.78l.3-4.66-2.46-.16c-.51-.03-.85-.02-1 .05-.15.07-.24.21-.25.43-.02.27.07.46.26.57.19.1.57.18 1.13.21l1.5.1-.22 3.41-.84-.05c-.7-.05-1.24-.13-1.61-.24-.37-.12-.76-.36-1.17-.72-.41-.37-.7-.82-.88-1.35-.18-.53-.25-1.19-.19-1.97.05-.76.2-1.42.45-1.99.25-.57.57-1 .96-1.3.39-.3.81-.5 1.26-.59s1.1-.12 1.94-.06l3.31.22c.99.06 1.77.26 2.32.57.56.32.96.8 1.23 1.46.26.66.37 1.39.31 2.22-.07 1.01-.3 1.83-.72 2.46-.41.63-.93 1.06-1.55 1.28-.63.22-1.49.3-2.59.23l-1.49-.12zm2.08-3.48l.83.05c.59.04.97.03 1.15-.02.17-.05.27-.18.28-.38.02-.25-.05-.41-.19-.48s-.53-.12-1.17-.17l-.83-.05-.07 1.05zM213.72 147.2l.56-3.14.61.11c.52.09.85.12 1 .08.15-.04.25-.18.29-.42.04-.2 0-.36-.11-.48s-.29-.21-.54-.25c-.34-.06-.6-.08-.77-.06-.17.02-.37.14-.61.35-.24.21-.61.68-1.11 1.38-.67.94-1.25 1.54-1.73 1.78s-1.14.29-1.95.15c-.91-.16-1.58-.41-2-.74-.42-.33-.7-.8-.85-1.43-.15-.62-.15-1.34 0-2.15.16-.9.43-1.65.82-2.24s.83-.97 1.33-1.13c.5-.16 1.22-.15 2.16.01l.54.1-.56 3.14-.71-.13c-.6-.11-1-.14-1.2-.09s-.31.19-.35.42c-.04.25-.02.44.09.56.1.12.35.22.74.29.53.1.88.09 1.04-.01.16-.11.68-.73 1.57-1.85.75-.94 1.37-1.49 1.87-1.63.5-.15 1.06-.16 1.7-.05.9.16 1.53.4 1.91.72.38.32.63.8.76 1.43.13.63.12 1.33-.02 2.11-.14.77-.35 1.41-.64 1.92-.29.51-.61.88-.97 1.11-.36.23-.68.36-.96.37-.28.01-.69-.03-1.26-.13l-.65-.1z" class="c"/>
        </g>
    </g>
</svg>
